<svg data-v-423bf9ae="" xmlns="http://www.w3.org/2000/svg" viewBox="0 0 442 90" class="iconLeftSlogan"><!----><!----><!----><g data-v-423bf9ae="" id="6892df6d-e9dd-4af0-8d75-0d0c83f91ee7" fill="#1F321D" transform="matrix(5.004170237311399,0,0,5.004170237311399,109.9995877525073,-14.562136535343285)"><path d="M0 14.55L0.07 14.90C0.62 14.87 1.29 14.71 1.83 14.46C3.09 13.89 3.26 12.73 3.26 11.30L3.26 4.91C3.26 4.13 3.30 4.10 4.52 4.02L4.52 3.61L0.62 3.61L0.62 4.02C1.85 4.10 1.88 4.13 1.88 4.91L1.88 11.38C1.88 12.74 1.64 13.41 1.30 13.82C0.99 14.18 0.49 14.42 0 14.55ZM5.17 9.87C5.17 12.14 6.27 13.47 8.53 13.47C10.78 13.47 11.89 12.14 11.89 9.87C11.89 7.60 10.78 6.27 8.53 6.27C6.27 6.27 5.17 7.60 5.17 9.87ZM6.62 9.87C6.62 7.94 7.24 6.76 8.53 6.76C9.81 6.76 10.43 7.94 10.43 9.87C10.43 11.80 9.81 12.98 8.53 12.98C7.24 12.98 6.62 11.80 6.62 9.87ZM13.22 10.96L13.36 12.80C13.86 13.24 14.71 13.47 15.54 13.47C17.21 13.47 18.16 12.59 18.16 11.40C18.16 10.16 17.40 9.60 15.96 9.16C15.39 8.97 14.46 8.68 14.46 7.90C14.46 7.17 15.02 6.76 15.72 6.76C16.72 6.76 17.19 7.53 17.29 8.39L17.70 8.39L17.70 6.75C17.23 6.41 16.52 6.27 15.89 6.27C14.38 6.27 13.34 6.99 13.34 8.32C13.34 9.48 14.29 10.00 15.46 10.35C16.09 10.54 16.97 10.86 16.97 11.82C16.97 12.53 16.41 12.98 15.67 12.98C14.53 12.98 13.90 12.15 13.62 10.96ZM19.35 9.93C19.35 12.14 20.30 13.47 22.58 13.47C24.14 13.47 24.93 12.60 25.31 11.49L24.89 11.27C24.50 12.08 23.97 12.75 22.86 12.75C21.13 12.75 20.78 11.07 20.80 9.62L24.84 9.62C25.13 9.62 25.40 9.55 25.40 9.09C25.40 8.26 25.13 6.27 22.57 6.27C20.38 6.27 19.35 7.83 19.35 9.93ZM20.82 9.09C20.82 8.51 21.03 6.76 22.48 6.76C23.79 6.76 23.94 8.09 23.94 8.64C23.94 8.90 23.86 9.09 23.46 9.09ZM26.28 7.00L27.36 7.00L27.36 12.08C27.36 12.80 27.31 12.82 26.31 12.89L26.31 13.30L30.00 13.30L30.00 12.89C28.73 12.84 28.67 12.81 28.67 12.10L28.67 7.00L30.38 7.00L30.38 6.44L28.67 6.44L28.62 4.87C28.57 3.54 29.06 3.40 29.29 3.40C29.58 3.40 29.89 3.54 30.24 4.35C30.31 4.49 30.41 4.59 30.62 4.59C30.90 4.59 31.30 4.35 31.30 3.93C31.30 3.47 30.72 2.91 29.60 2.91C28.83 2.91 28.17 3.26 27.82 3.79C27.50 4.28 27.36 5.03 27.36 5.95L27.36 6.44L26.28 6.44ZM33.96 13.30L37.87 13.30L37.87 12.89C36.65 12.81 36.61 12.78 36.61 12.00L36.61 8.30L36.64 8.30L36.65 8.36C37.45 9.58 38.42 10.89 39.51 12.12C40.32 13.05 41.06 13.30 41.93 13.33L42.81 13.37L42.81 13.03C42.24 12.91 41.79 12.52 41.19 11.89C39.94 10.56 38.77 9.14 37.81 7.71C38.74 6.69 39.82 5.63 40.67 4.89C41.40 4.24 41.68 4.09 42.87 4.02L42.87 3.61L39.47 3.61L39.47 4.02L40.00 4.06C40.29 4.09 40.32 4.26 40.01 4.62C39.20 5.53 37.62 7.18 36.61 8.22L36.61 4.91C36.61 4.13 36.65 4.10 37.87 4.02L37.87 3.61L33.96 3.61L33.96 4.02C35.20 4.10 35.22 4.13 35.22 4.91L35.22 12.00C35.22 12.78 35.20 12.81 33.96 12.89ZM43.13 13.30L46.83 13.30L46.83 12.89C45.58 12.82 45.50 12.80 45.50 12.08L45.50 8.81C45.50 7.73 45.98 7.36 46.30 7.36C46.52 7.36 46.76 7.45 47.17 7.67C47.26 7.73 47.38 7.74 47.45 7.74C47.78 7.74 48.09 7.39 48.09 6.96C48.09 6.65 47.89 6.27 47.35 6.27C46.84 6.27 46.42 6.58 45.50 7.39L45.33 6.27L43.20 6.62L43.20 6.97L43.74 7.04C44.10 7.10 44.18 7.17 44.18 7.67L44.18 12.08C44.18 12.80 44.11 12.82 43.13 12.89ZM48.54 9.93C48.54 12.14 49.49 13.47 51.77 13.47C53.33 13.47 54.12 12.60 54.50 11.49L54.08 11.27C53.69 12.08 53.16 12.75 52.05 12.75C50.32 12.75 49.97 11.07 49.99 9.62L54.03 9.62C54.32 9.62 54.59 9.55 54.59 9.09C54.59 8.26 54.32 6.27 51.76 6.27C49.57 6.27 48.54 7.83 48.54 9.93ZM50.01 9.09C50.01 8.51 50.22 6.76 51.67 6.76C52.98 6.76 53.13 8.09 53.13 8.64C53.13 8.90 53.05 9.09 52.65 9.09ZM55.48 7.00L56.49 7.00L56.49 11.87C56.49 13.30 57.55 13.47 58.04 13.47C58.76 13.47 59.43 13.10 59.84 12.85L59.72 12.56C59.39 12.70 59.08 12.74 58.73 12.74C58.25 12.74 57.81 12.40 57.81 11.34L57.81 7.00L59.61 7.00L59.61 6.44L57.81 6.44L57.81 4.68L57.40 4.68L56.55 6.44L55.48 6.44ZM60.13 13.09L60.24 13.30L66.19 13.30L66.33 11.16L65.90 11.16C65.67 12.47 65.20 12.81 63.64 12.81L61.84 12.81C63.25 10.75 64.72 8.69 66.21 6.64L66.09 6.44L60.72 6.44L60.72 8.51L61.15 8.51C61.33 7.22 61.63 6.93 63.14 6.93L64.54 6.93C63.10 8.99 61.63 11.03 60.13 13.09Z"></path></g><defs data-v-423bf9ae=""><linearGradient data-v-423bf9ae="" gradientTransform="rotate(25)" id="5f351494-3e27-4534-a8bc-cac34a57332f" x1="0%" y1="0%" x2="100%" y2="0%"><stop data-v-423bf9ae="" offset="0%" style="stop-color: rgb(0, 238, 225); stop-opacity: 1;"></stop><stop data-v-423bf9ae="" offset="100%" style="stop-color: rgb(255, 210, 51); stop-opacity: 1;"></stop></linearGradient></defs><g data-v-423bf9ae="" id="8e35722d-fdd5-4a42-b56a-9396a48d7dff" transform="matrix(1.6071354126788506,0,0,1.6071354126788506,0.00020844499218242163,0)" stroke="none" fill="url(#5f351494-3e27-4534-a8bc-cac34a57332f)"><path d="M0 35v8c.002.552.448.998 1 1h54a1.003 1.003 0 0 0 1-1v-8H0zm34.95 20.67a47.03 47.03 0 0 1-3.05-4.12A8.414 8.414 0 0 1 30.29 46h-4.58a8.414 8.414 0 0 1-1.61 5.55 47.03 47.03 0 0 1-3.05 4.12.198.198 0 0 0-.03.22c.027.07.095.114.17.11h13.62a.172.172 0 0 0 .17-.11.198.198 0 0 0-.03-.22zM7 4H5a1.003 1.003 0 0 0-1 1v23c.002.552.448.998 1 1h2a1.003 1.003 0 0 0 1-1V5a1.003 1.003 0 0 0-1-1zm44 21h-2a1.003 1.003 0 0 0-1 1v2c.002.552.448.998 1 1h2a1.003 1.003 0 0 0 1-1v-2a1.003 1.003 0 0 0-1-1zm-27-1.52v4.67l3-1.8v-4.67l-3 1.8zm1-4.2l-2-1.2-3.06 1.84L23 21.75l3.06-1.83-1.06-.64zM7 4H5a1.003 1.003 0 0 0-1 1v23c.002.552.448.998 1 1h2a1.003 1.003 0 0 0 1-1V5a1.003 1.003 0 0 0-1-1zm44 11h-2a1.003 1.003 0 0 0-1 1v2c.002.552.448.998 1 1h2a1.003 1.003 0 0 0 1-1v-2a1.003 1.003 0 0 0-1-1zm0 10h-2a1.003 1.003 0 0 0-1 1v2c.002.552.448.998 1 1h2a1.003 1.003 0 0 0 1-1v-2a1.003 1.003 0 0 0-1-1zM7 4H5a1.003 1.003 0 0 0-1 1v23c.002.552.448.998 1 1h2a1.003 1.003 0 0 0 1-1V5a1.003 1.003 0 0 0-1-1zm44 0h-2a1.003 1.003 0 0 0-1 1v3c.002.552.448.998 1 1h2a1.003 1.003 0 0 0 1-1V5a1.003 1.003 0 0 0-1-1zm0 11h-2a1.003 1.003 0 0 0-1 1v2c.002.552.448.998 1 1h2a1.003 1.003 0 0 0 1-1v-2a1.003 1.003 0 0 0-1-1zm-20 4.28l-1.06.64L33 21.75l3.06-1.83L33 18.08l-2 1.2zM51 25h-2a1.003 1.003 0 0 0-1 1v2c.002.552.448.998 1 1h2a1.003 1.003 0 0 0 1-1v-2a1.003 1.003 0 0 0-1-1zm-27-1.52v4.67l3-1.8v-4.67l-3 1.8zm1-4.2l-2-1.2-3.06 1.84L23 21.75l3.06-1.83-1.06-.64zM7 4H5a1.003 1.003 0 0 0-1 1v23c.002.552.448.998 1 1h2a1.003 1.003 0 0 0 1-1V5a1.003 1.003 0 0 0-1-1zm44 0h-2a1.003 1.003 0 0 0-1 1v3c.002.552.448.998 1 1h2a1.003 1.003 0 0 0 1-1V5a1.003 1.003 0 0 0-1-1zm0 11h-2a1.003 1.003 0 0 0-1 1v2c.002.552.448.998 1 1h2a1.003 1.003 0 0 0 1-1v-2a1.003 1.003 0 0 0-1-1zm0 10h-2a1.003 1.003 0 0 0-1 1v2c.002.552.448.998 1 1h2a1.003 1.003 0 0 0 1-1v-2a1.003 1.003 0 0 0-1-1zm-17 3.15l3-1.8v-4.67l-3 1.8v4.67zm-1-10.07l-2 1.2-1.06.64L33 21.75l3.06-1.83L33 18.08zm-5-10l-3.06 1.84L28 11.75l3.06-1.83L28 8.08zm1 18.27l3 1.8v-4.67l-3-1.8v4.67zm0-8.2l1-.6 2-1.2v-4.67l-3 1.8v4.67zm-5-1.8l2 1.2 1 .6v-4.67l-3-1.8v4.67zm0 11.8l3-1.8v-4.67l-3 1.8v4.67zm1-8.87l-2-1.2-3.06 1.84L23 21.75l3.06-1.83-1.06-.64zm-6 7.07l3 1.8v-4.67l-3-1.8v4.67zM7 4H5a1.003 1.003 0 0 0-1 1v23c.002.552.448.998 1 1h2a1.003 1.003 0 0 0 1-1V5a1.003 1.003 0 0 0-1-1zm48-4H1a1.003 1.003 0 0 0-1 1v32h56V1a1.003 1.003 0 0 0-1-1zM10 28a3.009 3.009 0 0 1-3 3H5a3.009 3.009 0 0 1-3-3V5a3.009 3.009 0 0 1 3-3h2a3.009 3.009 0 0 1 3 3v23zm29-1.08a.974.974 0 0 1-.49.85l-5 3a.2.2 0 0 1-.08.04c-.03.01-.06.03-.09.04a.86.86 0 0 1-.68 0c-.03-.01-.06-.03-.09-.04a.2.2 0 0 1-.08-.04L28 28.08l-4.49 2.69a.2.2 0 0 1-.08.04c-.03.01-.06.03-.09.04a.86.86 0 0 1-.68 0c-.03-.01-.06-.03-.09-.04a.2.2 0 0 1-.08-.04l-5-3a.974.974 0 0 1-.49-.85v-7c0-.04.01-.07.01-.1s.01-.05.01-.08a.933.933 0 0 1 .12-.33v-.01c.01-.01.02-.01.02-.02a.804.804 0 0 1 .22-.23l.06-.06c.02-.01.03-.02.05-.03L22 16.35V9.92c0-.04.01-.07.01-.1s.01-.05.01-.08a.933.933 0 0 1 .12-.33V9.4c.01-.01.02-.01.02-.02a.804.804 0 0 1 .22-.23l.06-.06c.02-.01.03-.02.05-.03l5-3a.984.984 0 0 1 1.02 0l5 3c.02.01.03.02.05.03.017.02.038.036.06.05.086.067.16.148.22.24 0 .01.01.01.02.02v.01c.06.101.101.213.12.33 0 .03.01.05.01.08s.01.06.01.1v6.43l4.51 2.71c.02.01.03.02.05.03.017.02.038.036.06.05.086.067.16.148.22.24 0 .01.01.01.02.02v.01c.06.101.101.213.12.33 0 .03.01.05.01.08s.01.06.01.1v7zM54 28a3.009 3.009 0 0 1-3 3h-2a3.009 3.009 0 0 1-3-3v-2a3.009 3.009 0 0 1 3-3h2a3.009 3.009 0 0 1 3 3v2zm0-10a3.009 3.009 0 0 1-3 3h-2a3.009 3.009 0 0 1-3-3v-2a3.009 3.009 0 0 1 3-3h2a3.009 3.009 0 0 1 3 3v2zm0-10a3.009 3.009 0 0 1-3 3h-2a3.009 3.009 0 0 1-3-3V5a3.009 3.009 0 0 1 3-3h2a3.009 3.009 0 0 1 3 3v3zM7 4H5a1.003 1.003 0 0 0-1 1v23c.002.552.448.998 1 1h2a1.003 1.003 0 0 0 1-1V5a1.003 1.003 0 0 0-1-1zm44 21h-2a1.003 1.003 0 0 0-1 1v2c.002.552.448.998 1 1h2a1.003 1.003 0 0 0 1-1v-2a1.003 1.003 0 0 0-1-1zm0-10h-2a1.003 1.003 0 0 0-1 1v2c.002.552.448.998 1 1h2a1.003 1.003 0 0 0 1-1v-2a1.003 1.003 0 0 0-1-1zm0-11h-2a1.003 1.003 0 0 0-1 1v3c.002.552.448.998 1 1h2a1.003 1.003 0 0 0 1-1V5a1.003 1.003 0 0 0-1-1zM7 4H5a1.003 1.003 0 0 0-1 1v23c.002.552.448.998 1 1h2a1.003 1.003 0 0 0 1-1V5a1.003 1.003 0 0 0-1-1zm18 15.28l-2-1.2-3.06 1.84L23 21.75l3.06-1.83-1.06-.64zm-1 4.2v4.67l3-1.8v-4.67l-3 1.8zM51 25h-2a1.003 1.003 0 0 0-1 1v2c.002.552.448.998 1 1h2a1.003 1.003 0 0 0 1-1v-2a1.003 1.003 0 0 0-1-1zm-18-6.92l-2 1.2-1.06.64L33 21.75l3.06-1.83L33 18.08zM51 15h-2a1.003 1.003 0 0 0-1 1v2c.002.552.448.998 1 1h2a1.003 1.003 0 0 0 1-1v-2a1.003 1.003 0 0 0-1-1zM7 4H5a1.003 1.003 0 0 0-1 1v23c.002.552.448.998 1 1h2a1.003 1.003 0 0 0 1-1V5a1.003 1.003 0 0 0-1-1zm44 21h-2a1.003 1.003 0 0 0-1 1v2c.002.552.448.998 1 1h2a1.003 1.003 0 0 0 1-1v-2a1.003 1.003 0 0 0-1-1zM7 4H5a1.003 1.003 0 0 0-1 1v23c.002.552.448.998 1 1h2a1.003 1.003 0 0 0 1-1V5a1.003 1.003 0 0 0-1-1zm18 15.28l-2-1.2-3.06 1.84L23 21.75l3.06-1.83-1.06-.64zm-1 4.2v4.67l3-1.8v-4.67l-3 1.8z"></path></g><!----><g data-v-423bf9ae="" id="c59ca887-7f19-46da-9d0f-f2fa253559be" fill="#1F321D" transform="matrix(1.4565372187977548,0,0,1.4565372187977548,109.54806065527754,51.712301278371136)"><path d="M1.15 6.34L0.31 6.15L0.36 5.89L3.05 5.89L3.03 6.11L1.90 6.32L3.86 13.18L5.90 6.18L6.21 6.14L8.15 13.18L10.36 6.36L9.08 6.13L9.12 5.89L11.74 5.89L11.72 6.14L10.91 6.34L8.22 14.49L7.77 14.57L5.94 7.63L3.92 14.49L3.44 14.57L1.15 6.34ZM20.66 6.36L19.43 6.18L19.48 5.89L25.68 5.89L25.46 8.07L25.15 8.03L25.02 6.24L21.37 6.24L21.37 9.89L23.66 9.89L23.91 8.94L24.28 8.89L24.06 11.55L23.71 11.61L23.60 10.26L21.37 10.26L21.37 14.03L25.21 14.03L25.72 12.19L26.00 12.26L25.79 14.40L19.46 14.40L19.50 14.11L20.66 13.90L20.66 6.36ZM35.60 6.15L35.60 9.75L37.72 9.75L37.72 9.75Q38.18 9.45 38.51 9.01L38.51 9.01L38.51 9.01Q38.85 8.57 38.85 8.02L38.85 8.02L38.85 8.02Q38.85 7.08 38.21 6.59L38.21 6.59L38.21 6.59Q37.57 6.11 36.44 6.11L36.44 6.11L36.44 6.11Q35.79 6.11 35.60 6.15L35.60 6.15ZM35.60 10.08L35.60 14.03L37.28 14.03L37.28 14.03Q37.92 14.03 38.38 13.85L38.38 13.85L38.38 13.85Q38.83 13.68 39.08 13.38L39.08 13.38L39.08 13.38Q39.32 13.08 39.43 12.74L39.43 12.74L39.43 12.74Q39.54 12.41 39.54 12.02L39.54 12.02L39.54 12.02Q39.54 11.68 39.43 11.36L39.43 11.36L39.43 11.36Q39.32 11.04 39.08 10.74L39.08 10.74L39.08 10.74Q38.84 10.45 38.40 10.26L38.40 10.26L38.40 10.26Q37.95 10.08 37.35 10.08L37.35 10.08L35.60 10.08ZM36.61 14.40L33.70 14.40L33.76 14.11L34.91 13.90L34.91 6.51L33.74 6.36L33.80 6.12L33.80 6.12Q33.93 6.10 34.36 6.03L34.36 6.03L34.36 6.03Q34.80 5.96 34.98 5.94L34.98 5.94L34.98 5.94Q35.15 5.91 35.51 5.87L35.51 5.87L35.51 5.87Q35.86 5.83 36.17 5.82L36.17 5.82L36.17 5.82Q36.48 5.80 36.83 5.80L36.83 5.80L36.83 5.80Q38.12 5.80 38.83 6.38L38.83 6.38L38.83 6.38Q39.55 6.96 39.55 7.79L39.55 7.79L39.55 7.79Q39.55 8.98 38.13 9.76L38.13 9.76L38.13 9.80L38.13 9.80Q39.12 9.86 39.69 10.46L39.69 10.46L39.69 10.46Q40.26 11.05 40.26 11.80L40.26 11.80L40.26 11.80Q40.26 12.22 40.16 12.58L40.16 12.58L40.16 12.58Q40.06 12.95 39.80 13.29L39.80 13.29L39.80 13.29Q39.53 13.63 39.13 13.87L39.13 13.87L39.13 13.87Q38.73 14.11 38.08 14.25L38.08 14.25L38.08 14.25Q37.43 14.40 36.61 14.40L36.61 14.40ZM59.78 6.19L59.78 14.03L61.01 14.03L61.01 14.03Q62.82 14.03 63.91 12.95L63.91 12.95L63.91 12.95Q65.01 11.87 65.01 10.12L65.01 10.12L65.01 10.12Q65.01 8.20 63.96 7.18L63.96 7.18L63.96 7.18Q62.90 6.16 60.97 6.16L60.97 6.16L60.97 6.16Q59.97 6.16 59.78 6.19L59.78 6.19ZM60.83 14.40L57.88 14.40L57.93 14.11L59.09 13.90L59.09 6.51L57.91 6.36L57.98 6.12L57.98 6.12Q60.07 5.79 61.22 5.79L61.22 5.79L61.22 5.79Q62.19 5.79 62.96 6.03L62.96 6.03L62.96 6.03Q63.74 6.26 64.25 6.66L64.25 6.66L64.25 6.66Q64.76 7.05 65.11 7.59L65.11 7.59L65.11 7.59Q65.45 8.13 65.60 8.71L65.60 8.71L65.60 8.71Q65.75 9.29 65.75 9.92L65.75 9.92L65.75 9.92Q65.75 10.64 65.58 11.28L65.58 11.28L65.58 11.28Q65.41 11.93 65.02 12.50L65.02 12.50L65.02 12.50Q64.64 13.08 64.08 13.49L64.08 13.49L64.08 13.49Q63.51 13.91 62.68 14.15L62.68 14.15L62.68 14.15Q61.85 14.40 60.83 14.40L60.83 14.40ZM74.69 6.36L73.47 6.18L73.51 5.89L79.71 5.89L79.50 8.07L79.18 8.03L79.05 6.24L75.40 6.24L75.40 9.89L77.69 9.89L77.94 8.94L78.31 8.89L78.09 11.55L77.74 11.61L77.63 10.26L75.40 10.26L75.40 14.03L79.24 14.03L79.75 12.19L80.03 12.26L79.82 14.40L73.49 14.40L73.53 14.11L74.69 13.90L74.69 6.36ZM88.72 6.34L87.72 6.14L87.75 5.89L90.64 5.89L90.62 6.14L89.47 6.32L91.83 13.30L94.41 6.34L93.14 6.14L93.16 5.89L95.83 5.89L95.80 6.14L94.92 6.32L91.90 14.47L91.55 14.57L88.72 6.34ZM104.75 6.36L103.52 6.18L103.57 5.89L109.76 5.89L109.55 8.07L109.24 8.03L109.11 6.24L105.46 6.24L105.46 9.89L107.75 9.89L108.00 8.94L108.37 8.89L108.14 11.55L107.80 11.61L107.69 10.26L105.46 10.26L105.46 14.03L109.30 14.03L109.81 12.19L110.09 12.26L109.88 14.40L103.54 14.40L103.58 14.11L104.75 13.90L104.75 6.36ZM123.96 14.40L117.81 14.40L117.84 14.11L119 13.90L119 6.34L117.82 6.17L117.85 5.90L120.96 5.90L120.93 6.17L119.73 6.32L119.73 14.03L123.35 14.03L123.88 12.09L124.18 12.14L123.96 14.40ZM132.68 9.75L132.68 9.75L132.68 9.75Q132.68 11.03 133.04 12.01L133.04 12.01L133.04 12.01Q133.40 13.00 134.12 13.57L134.12 13.57L134.12 13.57Q134.84 14.14 135.82 14.14L135.82 14.14L135.82 14.14Q136.39 14.14 136.88 13.92L136.88 13.92L136.88 13.92Q137.38 13.70 137.72 13.33L137.72 13.33L137.72 13.33Q138.07 12.96 138.31 12.49L138.31 12.49L138.31 12.49Q138.55 12.01 138.67 11.50L138.67 11.50L138.67 11.50Q138.78 10.99 138.78 10.48L138.78 10.48L138.78 10.48Q138.78 8.50 137.93 7.29L137.93 7.29L137.93 7.29Q137.08 6.07 135.63 6.07L135.63 6.07L135.63 6.07Q135.05 6.07 134.56 6.28L134.56 6.28L134.56 6.28Q134.07 6.49 133.72 6.85L133.72 6.85L133.72 6.85Q133.38 7.21 133.14 7.69L133.14 7.69L133.14 7.69Q132.90 8.16 132.79 8.69L132.79 8.69L132.79 8.69Q132.68 9.21 132.68 9.75ZM131.93 10.16L131.93 10.16L131.93 10.16Q131.93 8.16 133.02 6.92L133.02 6.92L133.02 6.92Q134.12 5.69 135.96 5.69L135.96 5.69L135.96 5.69Q137.09 5.69 137.91 6.27L137.91 6.27L137.91 6.27Q138.73 6.86 139.13 7.84L139.13 7.84L139.13 7.84Q139.52 8.83 139.52 10.11L139.52 10.11L139.52 10.11Q139.52 10.75 139.37 11.38L139.37 11.38L139.37 11.38Q139.22 12.00 138.90 12.58L138.90 12.58L138.90 12.58Q138.57 13.17 138.11 13.61L138.11 13.61L138.11 13.61Q137.65 14.05 136.97 14.32L136.97 14.32L136.97 14.32Q136.29 14.58 135.49 14.58L135.49 14.58L135.49 14.58Q134.44 14.58 133.61 13.98L133.61 13.98L133.61 13.98Q132.79 13.37 132.36 12.37L132.36 12.37L132.36 12.37Q131.93 11.37 131.93 10.16ZM150.66 14.40L147.25 14.40L147.28 14.11L148.36 13.90L148.36 6.51L147.25 6.36L147.31 6.12L147.31 6.12Q147.49 6.09 147.93 6.02L147.93 6.02L147.93 6.02Q148.38 5.94 148.61 5.91L148.61 5.91L148.61 5.91Q148.84 5.88 149.25 5.84L149.25 5.84L149.25 5.84Q149.66 5.81 150.08 5.81L150.08 5.81L150.08 5.81Q150.77 5.81 151.35 5.96L151.35 5.96L151.35 5.96Q151.94 6.10 152.40 6.40L152.40 6.40L152.40 6.40Q152.87 6.69 153.13 7.18L153.13 7.18L153.13 7.18Q153.38 7.66 153.38 8.29L153.38 8.29L153.38 8.29Q153.38 8.90 153.10 9.43L153.10 9.43L153.10 9.43Q152.82 9.97 152.36 10.33L152.36 10.33L152.36 10.33Q151.90 10.69 151.30 10.90L151.30 10.90L151.30 10.90Q150.70 11.10 150.06 11.10L150.06 11.10L150.06 11.10Q149.79 11.10 149.72 11.09L149.72 11.09L149.65 10.80L150.02 10.78L150.02 10.78Q150.68 10.75 151.18 10.55L151.18 10.55L151.18 10.55Q151.68 10.36 151.97 10.03L151.97 10.03L151.97 10.03Q152.26 9.70 152.40 9.30L152.40 9.30L152.40 9.30Q152.54 8.90 152.54 8.43L152.54 8.43L152.54 8.43Q152.54 7.98 152.37 7.57L152.37 7.57L152.37 7.57Q152.20 7.16 151.88 6.83L151.88 6.83L151.88 6.83Q151.56 6.50 151.04 6.31L151.04 6.31L151.04 6.31Q150.51 6.11 149.86 6.11L149.86 6.11L149.11 6.15L149.11 13.95L150.71 14.08L150.66 14.40ZM162.30 6.36L161.08 6.18L161.12 5.89L167.32 5.89L167.10 8.07L166.79 8.03L166.66 6.24L163.01 6.24L163.01 9.89L165.30 9.89L165.55 8.94L165.92 8.89L165.70 11.55L165.35 11.61L165.24 10.26L163.01 10.26L163.01 14.03L166.85 14.03L167.36 12.19L167.64 12.26L167.43 14.40L161.10 14.40L161.14 14.11L162.30 13.90L162.30 6.36ZM177.17 6.18L177.17 10.11L178.72 10.11L178.72 10.11Q179.40 9.86 179.86 9.28L179.86 9.28L179.86 9.28Q180.32 8.70 180.32 8.02L180.32 8.02L180.32 8.02Q180.32 7.11 179.70 6.63L179.70 6.63L179.70 6.63Q179.08 6.15 177.99 6.15L177.99 6.15L177.17 6.18ZM178.54 14.40L175.35 14.40L175.40 14.11L176.46 13.90L176.46 6.51L175.37 6.37L175.43 6.13L175.43 6.13Q177.26 5.83 178.34 5.83L178.34 5.83L178.34 5.83Q179.10 5.83 179.71 6.05L179.71 6.05L179.71 6.05Q180.32 6.27 180.69 6.73L180.69 6.73L180.69 6.73Q181.07 7.19 181.07 7.83L181.07 7.83L181.07 7.83Q181.07 8.57 180.64 9.14L180.64 9.14L180.64 9.14Q180.22 9.72 179.18 10.23L179.18 10.23L179.18 10.23L180.50 12.19L180.50 12.19Q181.21 13.23 181.56 13.58L181.56 13.58L181.56 13.58Q181.90 13.92 182.29 14.05L182.29 14.05L182.62 14.16L182.57 14.42L182.57 14.42Q182.28 14.52 181.94 14.52L181.94 14.52L181.94 14.52Q181.65 14.52 181.40 14.40L181.40 14.40L181.40 14.40Q181.15 14.28 180.90 14.01L180.90 14.01L180.90 14.01Q180.66 13.75 180.48 13.48L180.48 13.48L180.48 13.48Q180.29 13.22 180.02 12.77L180.02 12.77L178.63 10.49L177.17 10.49L177.17 13.95L178.61 14.08L178.54 14.40Z"></path></g></svg>