<svg data-v-fde0c5aa="" xmlns="http://www.w3.org/2000/svg" viewBox="0 125 300 50" class="font"><!----><defs data-v-fde0c5aa=""><!----></defs><defs data-v-fde0c5aa=""><linearGradient data-v-fde0c5aa="" gradientTransform="rotate(25)" id="be914f51-1b40-487c-97df-451c598c1708" x1="0%" y1="0%" x2="100%" y2="0%"><stop data-v-fde0c5aa="" offset="0%" stop-color="#00EEE1" stop-opacity="1"></stop><stop data-v-fde0c5aa="" offset="100%" stop-color="#FFD233" stop-opacity="1"></stop></linearGradient></defs><g data-v-fde0c5aa="" id="631a7590-f012-41c5-abe8-ef9d0620f4f0" fill="url(#be914f51-1b40-487c-97df-451c598c1708)" transform="matrix(3.31674949384668,0,0,3.31674949384668,40,120.46434585218827)"><path d="M0 14.55L0.07 14.90C0.62 14.87 1.29 14.71 1.83 14.46C3.09 13.89 3.26 12.73 3.26 11.30L3.26 4.91C3.26 4.13 3.30 4.10 4.52 4.02L4.52 3.61L0.62 3.61L0.62 4.02C1.85 4.10 1.88 4.13 1.88 4.91L1.88 11.38C1.88 12.74 1.64 13.41 1.30 13.82C0.99 14.18 0.49 14.42 0 14.55ZM5.17 9.87C5.17 12.14 6.27 13.47 8.53 13.47C10.78 13.47 11.89 12.14 11.89 9.87C11.89 7.60 10.78 6.27 8.53 6.27C6.27 6.27 5.17 7.60 5.17 9.87ZM6.62 9.87C6.62 7.94 7.24 6.76 8.53 6.76C9.81 6.76 10.43 7.94 10.43 9.87C10.43 11.80 9.81 12.98 8.53 12.98C7.24 12.98 6.62 11.80 6.62 9.87ZM13.22 10.96L13.36 12.80C13.86 13.24 14.71 13.47 15.54 13.47C17.21 13.47 18.16 12.59 18.16 11.40C18.16 10.16 17.40 9.60 15.96 9.16C15.39 8.97 14.46 8.68 14.46 7.90C14.46 7.17 15.02 6.76 15.72 6.76C16.72 6.76 17.19 7.53 17.29 8.39L17.70 8.39L17.70 6.75C17.23 6.41 16.52 6.27 15.89 6.27C14.38 6.27 13.34 6.99 13.34 8.32C13.34 9.48 14.29 10.00 15.46 10.35C16.09 10.54 16.97 10.86 16.97 11.82C16.97 12.53 16.41 12.98 15.67 12.98C14.53 12.98 13.90 12.15 13.62 10.96ZM19.35 9.93C19.35 12.14 20.30 13.47 22.58 13.47C24.14 13.47 24.93 12.60 25.31 11.49L24.89 11.27C24.50 12.08 23.97 12.75 22.86 12.75C21.13 12.75 20.78 11.07 20.80 9.62L24.84 9.62C25.13 9.62 25.40 9.55 25.40 9.09C25.40 8.26 25.13 6.27 22.57 6.27C20.38 6.27 19.35 7.83 19.35 9.93ZM20.82 9.09C20.82 8.51 21.03 6.76 22.48 6.76C23.79 6.76 23.94 8.09 23.94 8.64C23.94 8.90 23.86 9.09 23.46 9.09ZM26.28 7.00L27.36 7.00L27.36 12.08C27.36 12.80 27.31 12.82 26.31 12.89L26.31 13.30L30.00 13.30L30.00 12.89C28.73 12.84 28.67 12.81 28.67 12.10L28.67 7.00L30.38 7.00L30.38 6.44L28.67 6.44L28.62 4.87C28.57 3.54 29.06 3.40 29.29 3.40C29.58 3.40 29.89 3.54 30.24 4.35C30.31 4.49 30.41 4.59 30.62 4.59C30.90 4.59 31.30 4.35 31.30 3.93C31.30 3.47 30.72 2.91 29.60 2.91C28.83 2.91 28.17 3.26 27.82 3.79C27.50 4.28 27.36 5.03 27.36 5.95L27.36 6.44L26.28 6.44ZM33.96 13.30L37.87 13.30L37.87 12.89C36.65 12.81 36.61 12.78 36.61 12.00L36.61 8.30L36.64 8.30L36.65 8.36C37.45 9.58 38.42 10.89 39.51 12.12C40.32 13.05 41.06 13.30 41.93 13.33L42.81 13.37L42.81 13.03C42.24 12.91 41.79 12.52 41.19 11.89C39.94 10.56 38.77 9.14 37.81 7.71C38.74 6.69 39.82 5.63 40.67 4.89C41.40 4.24 41.68 4.09 42.87 4.02L42.87 3.61L39.47 3.61L39.47 4.02L40.00 4.06C40.29 4.09 40.32 4.26 40.01 4.62C39.20 5.53 37.62 7.18 36.61 8.22L36.61 4.91C36.61 4.13 36.65 4.10 37.87 4.02L37.87 3.61L33.96 3.61L33.96 4.02C35.20 4.10 35.22 4.13 35.22 4.91L35.22 12.00C35.22 12.78 35.20 12.81 33.96 12.89ZM43.13 13.30L46.83 13.30L46.83 12.89C45.58 12.82 45.50 12.80 45.50 12.08L45.50 8.81C45.50 7.73 45.98 7.36 46.30 7.36C46.52 7.36 46.76 7.45 47.17 7.67C47.26 7.73 47.38 7.74 47.45 7.74C47.78 7.74 48.09 7.39 48.09 6.96C48.09 6.65 47.89 6.27 47.35 6.27C46.84 6.27 46.42 6.58 45.50 7.39L45.33 6.27L43.20 6.62L43.20 6.97L43.74 7.04C44.10 7.10 44.18 7.17 44.18 7.67L44.18 12.08C44.18 12.80 44.11 12.82 43.13 12.89ZM48.54 9.93C48.54 12.14 49.49 13.47 51.77 13.47C53.33 13.47 54.12 12.60 54.50 11.49L54.08 11.27C53.69 12.08 53.16 12.75 52.05 12.75C50.32 12.75 49.97 11.07 49.99 9.62L54.03 9.62C54.32 9.62 54.59 9.55 54.59 9.09C54.59 8.26 54.32 6.27 51.76 6.27C49.57 6.27 48.54 7.83 48.54 9.93ZM50.01 9.09C50.01 8.51 50.22 6.76 51.67 6.76C52.98 6.76 53.13 8.09 53.13 8.64C53.13 8.90 53.05 9.09 52.65 9.09ZM55.48 7.00L56.49 7.00L56.49 11.87C56.49 13.30 57.55 13.47 58.04 13.47C58.76 13.47 59.43 13.10 59.84 12.85L59.72 12.56C59.39 12.70 59.08 12.74 58.73 12.74C58.25 12.74 57.81 12.40 57.81 11.34L57.81 7.00L59.61 7.00L59.61 6.44L57.81 6.44L57.81 4.68L57.40 4.68L56.55 6.44L55.48 6.44ZM60.13 13.09L60.24 13.30L66.19 13.30L66.33 11.16L65.90 11.16C65.67 12.47 65.20 12.81 63.64 12.81L61.84 12.81C63.25 10.75 64.72 8.69 66.21 6.64L66.09 6.44L60.72 6.44L60.72 8.51L61.15 8.51C61.33 7.22 61.63 6.93 63.14 6.93L64.54 6.93C63.10 8.99 61.63 11.03 60.13 13.09Z"></path></g><!----><!----></svg>